<mxfile host="Electron" modified="2023-10-15T18:52:31.924Z" agent="Mozilla/5.0 (Windows NT 10.0; Win64; x64) AppleWebKit/537.36 (KHTML, like Gecko) draw.io/22.0.2 Chrome/114.0.5735.289 Electron/25.8.4 Safari/537.36" etag="ceLgBuORWV_2dbd54NMO" version="22.0.2" type="device">
  <diagram id="ge_Ycoqkj8bUegCq8yI_" name="Page-1">
    <mxGraphModel dx="1235" dy="731" grid="1" gridSize="10" guides="1" tooltips="1" connect="1" arrows="1" fold="1" page="1" pageScale="1" pageWidth="850" pageHeight="1100" math="0" shadow="0">
      <root>
        <mxCell id="0" />
        <mxCell id="1" parent="0" />
        <mxCell id="3gGUrQxjVq7dr_3lIL3r-1" value="" style="rounded=0;whiteSpace=wrap;html=1;" vertex="1" parent="1">
          <mxGeometry y="20" width="840" height="1480" as="geometry" />
        </mxCell>
        <mxCell id="q7RqIhyHIb_Ac7hnuP10-1" value="" style="shape=umlLifeline;participant=umlActor;perimeter=lifelinePerimeter;whiteSpace=wrap;html=1;container=1;collapsible=0;recursiveResize=0;verticalAlign=top;spacingTop=36;outlineConnect=0;fontSize=15;size=50;fillColor=#76608a;fontColor=#ffffff;strokeColor=#432D57;" parent="1" vertex="1">
          <mxGeometry x="40" y="80" width="30" height="1370" as="geometry" />
        </mxCell>
        <mxCell id="q7RqIhyHIb_Ac7hnuP10-2" value="" style="html=1;points=[];perimeter=orthogonalPerimeter;fillColor=#f0a30a;fontColor=#000000;strokeColor=#BD7000;" parent="1" vertex="1">
          <mxGeometry x="55" y="160" width="10" height="620" as="geometry" />
        </mxCell>
        <mxCell id="q7RqIhyHIb_Ac7hnuP10-5" value="&lt;font size=&quot;1&quot;&gt;&lt;b style=&quot;font-size: 20px&quot;&gt;System&lt;/b&gt;&lt;/font&gt;" style="shape=umlLifeline;perimeter=lifelinePerimeter;whiteSpace=wrap;html=1;container=1;collapsible=0;recursiveResize=0;outlineConnect=0;fillColor=#76608a;fontColor=#ffffff;strokeColor=#432D57;" parent="1" vertex="1">
          <mxGeometry x="480" y="80" width="100" height="1380" as="geometry" />
        </mxCell>
        <mxCell id="q7RqIhyHIb_Ac7hnuP10-6" value="&lt;font style=&quot;font-size: 20px&quot;&gt;&lt;b&gt;Database&lt;/b&gt;&lt;/font&gt;" style="shape=umlLifeline;perimeter=lifelinePerimeter;whiteSpace=wrap;html=1;container=1;collapsible=0;recursiveResize=0;outlineConnect=0;fillColor=#76608a;fontColor=#ffffff;strokeColor=#432D57;" parent="1" vertex="1">
          <mxGeometry x="720" y="80" width="100" height="1370" as="geometry" />
        </mxCell>
        <mxCell id="q7RqIhyHIb_Ac7hnuP10-60" value="" style="html=1;points=[];perimeter=orthogonalPerimeter;fontSize=18;fontColor=#000000;fillColor=#f0a30a;strokeColor=#BD7000;" parent="q7RqIhyHIb_Ac7hnuP10-6" vertex="1">
          <mxGeometry x="40" y="900" width="10" height="320" as="geometry" />
        </mxCell>
        <mxCell id="q7RqIhyHIb_Ac7hnuP10-7" value="&lt;b style=&quot;font-size: 20px&quot;&gt;User/&lt;br&gt;Customer&lt;/b&gt;" style="text;html=1;align=center;verticalAlign=middle;resizable=0;points=[];autosize=1;fontSize=18;" parent="1" vertex="1">
          <mxGeometry y="20" width="110" height="50" as="geometry" />
        </mxCell>
        <mxCell id="q7RqIhyHIb_Ac7hnuP10-9" value="&lt;b&gt;&lt;font style=&quot;font-size: 20px&quot;&gt;Admin&lt;/font&gt;&lt;/b&gt;" style="text;html=1;align=center;verticalAlign=middle;resizable=0;points=[];autosize=1;fontSize=18;" parent="1" vertex="1">
          <mxGeometry x="255" y="40" width="80" height="30" as="geometry" />
        </mxCell>
        <mxCell id="q7RqIhyHIb_Ac7hnuP10-14" value="" style="html=1;points=[];perimeter=orthogonalPerimeter;fillColor=#f0a30a;fontColor=#000000;strokeColor=#BD7000;" parent="1" vertex="1">
          <mxGeometry x="520" y="160" width="10" height="1260" as="geometry" />
        </mxCell>
        <mxCell id="q7RqIhyHIb_Ac7hnuP10-17" value="return" style="verticalAlign=bottom;endArrow=open;dashed=1;endSize=8;labelBackgroundColor=none;fontSize=18;noLabel=1;fontColor=none;" parent="1" edge="1">
          <mxGeometry relative="1" as="geometry">
            <mxPoint x="520" y="240" as="sourcePoint" />
            <mxPoint x="65" y="240" as="targetPoint" />
          </mxGeometry>
        </mxCell>
        <mxCell id="q7RqIhyHIb_Ac7hnuP10-18" value="&lt;font style=&quot;font-size: 18px&quot;&gt;Request for Login&lt;/font&gt;" style="text;html=1;align=center;verticalAlign=middle;resizable=0;points=[];autosize=1;fontSize=18;fontColor=none;" parent="1" vertex="1">
          <mxGeometry x="100" y="170" width="160" height="30" as="geometry" />
        </mxCell>
        <mxCell id="q7RqIhyHIb_Ac7hnuP10-19" value="&lt;font style=&quot;font-size: 18px&quot;&gt;Access System&lt;/font&gt;" style="text;html=1;align=center;verticalAlign=middle;resizable=0;points=[];autosize=1;fontSize=18;fontColor=none;" parent="1" vertex="1">
          <mxGeometry x="340" y="210" width="140" height="30" as="geometry" />
        </mxCell>
        <mxCell id="q7RqIhyHIb_Ac7hnuP10-21" value="dispatch" style="verticalAlign=top;endArrow=block;fontSize=18;textDirection=rtl;horizontal=1;labelPosition=right;verticalLabelPosition=bottom;align=left;noLabel=1;fontColor=none;labelBackgroundColor=none;" parent="1" edge="1">
          <mxGeometry width="80" relative="1" as="geometry">
            <mxPoint x="64" y="200.5" as="sourcePoint" />
            <mxPoint x="520" y="200" as="targetPoint" />
          </mxGeometry>
        </mxCell>
        <mxCell id="q7RqIhyHIb_Ac7hnuP10-22" value="&lt;font style=&quot;font-size: 18px&quot;&gt;Browse Product&lt;/font&gt;" style="text;html=1;align=center;verticalAlign=middle;resizable=0;points=[];autosize=1;fontSize=18;fontColor=none;" parent="1" vertex="1">
          <mxGeometry x="110" y="250" width="140" height="30" as="geometry" />
        </mxCell>
        <mxCell id="q7RqIhyHIb_Ac7hnuP10-24" value="&lt;font style=&quot;font-size: 18px&quot;&gt;Display Product&lt;/font&gt;" style="text;html=1;align=center;verticalAlign=middle;resizable=0;points=[];autosize=1;fontSize=18;fontColor=none;" parent="1" vertex="1">
          <mxGeometry x="340" y="290" width="140" height="30" as="geometry" />
        </mxCell>
        <mxCell id="q7RqIhyHIb_Ac7hnuP10-26" value="&lt;font style=&quot;font-size: 18px&quot;&gt;View Other &lt;br&gt;Customer&#39;s&amp;nbsp;Review,&lt;br&gt;&amp;nbsp;Rating &amp;amp; Feedback&lt;br&gt;&lt;/font&gt;" style="text;html=1;align=center;verticalAlign=middle;resizable=0;points=[];autosize=1;fontSize=18;fontColor=none;" parent="1" vertex="1">
          <mxGeometry x="85" y="330" width="170" height="70" as="geometry" />
        </mxCell>
        <mxCell id="q7RqIhyHIb_Ac7hnuP10-27" value="dispatch" style="verticalAlign=top;endArrow=block;fontSize=18;textDirection=rtl;horizontal=1;labelPosition=right;verticalLabelPosition=bottom;align=left;noLabel=1;fontColor=none;labelBackgroundColor=none;" parent="1" edge="1">
          <mxGeometry width="80" relative="1" as="geometry">
            <mxPoint x="67.5" y="520" as="sourcePoint" />
            <mxPoint x="522.5" y="520" as="targetPoint" />
          </mxGeometry>
        </mxCell>
        <mxCell id="q7RqIhyHIb_Ac7hnuP10-28" value="&lt;font style=&quot;font-size: 18px&quot;&gt;Select Product&lt;/font&gt;" style="text;html=1;align=center;verticalAlign=middle;resizable=0;points=[];autosize=1;fontSize=18;fontColor=none;" parent="1" vertex="1">
          <mxGeometry x="105" y="490" width="130" height="30" as="geometry" />
        </mxCell>
        <mxCell id="q7RqIhyHIb_Ac7hnuP10-31" value="return" style="verticalAlign=bottom;endArrow=open;dashed=1;endSize=8;labelBackgroundColor=none;fontSize=18;noLabel=1;fontColor=none;" parent="1" edge="1">
          <mxGeometry relative="1" as="geometry">
            <mxPoint x="520" y="560" as="sourcePoint" />
            <mxPoint x="65" y="560" as="targetPoint" />
          </mxGeometry>
        </mxCell>
        <mxCell id="q7RqIhyHIb_Ac7hnuP10-32" value="&lt;font style=&quot;font-size: 18px&quot;&gt;Display Selected Product&lt;/font&gt;" style="text;html=1;align=center;verticalAlign=middle;resizable=0;points=[];autosize=1;fontSize=18;fontColor=none;" parent="1" vertex="1">
          <mxGeometry x="300" y="530" width="220" height="30" as="geometry" />
        </mxCell>
        <mxCell id="q7RqIhyHIb_Ac7hnuP10-33" value="dispatch" style="verticalAlign=top;endArrow=block;fontSize=18;textDirection=rtl;horizontal=1;labelPosition=right;verticalLabelPosition=bottom;align=left;noLabel=1;fontColor=none;labelBackgroundColor=none;" parent="1" edge="1">
          <mxGeometry width="80" relative="1" as="geometry">
            <mxPoint x="65" y="600" as="sourcePoint" />
            <mxPoint x="520" y="600" as="targetPoint" />
          </mxGeometry>
        </mxCell>
        <mxCell id="q7RqIhyHIb_Ac7hnuP10-34" value="&lt;font style=&quot;font-size: 18px&quot;&gt;Buy Product&lt;/font&gt;" style="text;html=1;align=center;verticalAlign=middle;resizable=0;points=[];autosize=1;fontSize=18;fontColor=none;" parent="1" vertex="1">
          <mxGeometry x="110" y="570" width="110" height="30" as="geometry" />
        </mxCell>
        <mxCell id="q7RqIhyHIb_Ac7hnuP10-35" value="" style="html=1;points=[];perimeter=orthogonalPerimeter;fontSize=18;fontColor=#000000;fillColor=#f0a30a;strokeColor=#BD7000;" parent="1" vertex="1">
          <mxGeometry x="760" y="560" width="10" height="180" as="geometry" />
        </mxCell>
        <mxCell id="q7RqIhyHIb_Ac7hnuP10-36" value="dispatch" style="verticalAlign=top;endArrow=block;fontSize=18;textDirection=rtl;horizontal=1;labelPosition=right;verticalLabelPosition=bottom;align=left;noLabel=1;fontColor=none;labelBackgroundColor=none;" parent="1" edge="1">
          <mxGeometry width="80" relative="1" as="geometry">
            <mxPoint x="530" y="600" as="sourcePoint" />
            <mxPoint x="760" y="600" as="targetPoint" />
          </mxGeometry>
        </mxCell>
        <mxCell id="q7RqIhyHIb_Ac7hnuP10-37" value="&lt;font style=&quot;font-size: 18px&quot;&gt;Get Details&lt;/font&gt;" style="text;html=1;align=center;verticalAlign=middle;resizable=0;points=[];autosize=1;fontSize=18;fontColor=none;" parent="1" vertex="1">
          <mxGeometry x="590" y="570" width="100" height="30" as="geometry" />
        </mxCell>
        <mxCell id="q7RqIhyHIb_Ac7hnuP10-45" value="&lt;font style=&quot;font-size: 18px&quot;&gt;Comment Review,&lt;br&gt;Rating &amp;amp; Feedback&lt;br&gt;&lt;/font&gt;" style="text;html=1;align=center;verticalAlign=middle;resizable=0;points=[];autosize=1;fontSize=18;fontColor=none;" parent="1" vertex="1">
          <mxGeometry x="90" y="670" width="170" height="50" as="geometry" />
        </mxCell>
        <mxCell id="q7RqIhyHIb_Ac7hnuP10-46" value="dispatch" style="verticalAlign=top;endArrow=block;fontSize=18;textDirection=rtl;horizontal=1;labelPosition=right;verticalLabelPosition=bottom;align=left;noLabel=1;fontColor=none;labelBackgroundColor=none;" parent="1" edge="1">
          <mxGeometry width="80" relative="1" as="geometry">
            <mxPoint x="530" y="720" as="sourcePoint" />
            <mxPoint x="760" y="720" as="targetPoint" />
          </mxGeometry>
        </mxCell>
        <mxCell id="q7RqIhyHIb_Ac7hnuP10-47" value="&lt;font style=&quot;font-size: 18px&quot;&gt;Store this Comments&lt;/font&gt;" style="text;html=1;align=center;verticalAlign=middle;resizable=0;points=[];autosize=1;fontSize=18;fontColor=none;" parent="1" vertex="1">
          <mxGeometry x="555" y="690" width="180" height="30" as="geometry" />
        </mxCell>
        <mxCell id="q7RqIhyHIb_Ac7hnuP10-50" value="" style="html=1;points=[];perimeter=orthogonalPerimeter;fillColor=#f0a30a;fontColor=#000000;strokeColor=#BD7000;" parent="1" vertex="1">
          <mxGeometry x="295" y="780" width="10" height="640" as="geometry" />
        </mxCell>
        <mxCell id="q7RqIhyHIb_Ac7hnuP10-51" value="" style="shape=umlLifeline;participant=umlActor;perimeter=lifelinePerimeter;whiteSpace=wrap;html=1;container=1;collapsible=0;recursiveResize=0;verticalAlign=top;spacingTop=36;outlineConnect=0;fontSize=15;size=50;fillColor=#76608a;fontColor=#ffffff;strokeColor=#432D57;" parent="1" vertex="1">
          <mxGeometry x="280" y="80" width="30" height="1380" as="geometry" />
        </mxCell>
        <mxCell id="q7RqIhyHIb_Ac7hnuP10-52" value="dispatch" style="verticalAlign=top;endArrow=block;fontSize=18;textDirection=rtl;horizontal=1;labelPosition=right;verticalLabelPosition=bottom;align=left;noLabel=1;fontColor=none;labelBackgroundColor=none;" parent="1" edge="1">
          <mxGeometry width="80" relative="1" as="geometry">
            <mxPoint x="305" y="800" as="sourcePoint" />
            <mxPoint x="520" y="800" as="targetPoint" />
          </mxGeometry>
        </mxCell>
        <mxCell id="q7RqIhyHIb_Ac7hnuP10-53" value="&lt;font style=&quot;font-size: 18px&quot;&gt;Request for Login&lt;/font&gt;" style="text;html=1;align=center;verticalAlign=middle;resizable=0;points=[];autosize=1;fontSize=18;fontColor=none;" parent="1" vertex="1">
          <mxGeometry x="335" y="770" width="160" height="30" as="geometry" />
        </mxCell>
        <mxCell id="q7RqIhyHIb_Ac7hnuP10-54" value="return" style="verticalAlign=bottom;endArrow=open;dashed=1;endSize=8;labelBackgroundColor=none;fontSize=18;noLabel=1;fontColor=none;" parent="1" edge="1">
          <mxGeometry relative="1" as="geometry">
            <mxPoint x="520" y="840" as="sourcePoint" />
            <mxPoint x="305" y="840" as="targetPoint" />
          </mxGeometry>
        </mxCell>
        <mxCell id="q7RqIhyHIb_Ac7hnuP10-55" value="&lt;font style=&quot;font-size: 18px&quot;&gt;Access System&lt;/font&gt;" style="text;html=1;align=center;verticalAlign=middle;resizable=0;points=[];autosize=1;fontSize=18;fontColor=none;" parent="1" vertex="1">
          <mxGeometry x="340" y="810" width="140" height="30" as="geometry" />
        </mxCell>
        <mxCell id="q7RqIhyHIb_Ac7hnuP10-56" value="dispatch" style="verticalAlign=top;endArrow=block;fontSize=18;textDirection=rtl;horizontal=1;labelPosition=right;verticalLabelPosition=bottom;align=left;noLabel=1;fontColor=none;labelBackgroundColor=none;" parent="1" edge="1">
          <mxGeometry width="80" relative="1" as="geometry">
            <mxPoint x="305" y="920" as="sourcePoint" />
            <mxPoint x="520" y="920" as="targetPoint" />
          </mxGeometry>
        </mxCell>
        <mxCell id="q7RqIhyHIb_Ac7hnuP10-57" value="&lt;font style=&quot;font-size: 18px&quot;&gt;View Product&#39;s Review,&lt;br&gt;Rating &amp;amp; feedback&lt;br&gt;&lt;/font&gt;" style="text;html=1;align=center;verticalAlign=middle;resizable=0;points=[];autosize=1;fontSize=18;fontColor=none;" parent="1" vertex="1">
          <mxGeometry x="315" y="860" width="200" height="50" as="geometry" />
        </mxCell>
        <mxCell id="q7RqIhyHIb_Ac7hnuP10-58" value="dispatch" style="verticalAlign=top;endArrow=block;fontSize=18;textDirection=rtl;horizontal=1;labelPosition=right;verticalLabelPosition=bottom;align=left;noLabel=1;fontColor=none;labelBackgroundColor=none;" parent="1" edge="1">
          <mxGeometry width="80" relative="1" as="geometry">
            <mxPoint x="305" y="1000" as="sourcePoint" />
            <mxPoint x="520" y="1000" as="targetPoint" />
          </mxGeometry>
        </mxCell>
        <mxCell id="q7RqIhyHIb_Ac7hnuP10-59" value="&lt;font style=&quot;font-size: 18px&quot;&gt;Manage Product&#39;s&amp;nbsp;&lt;br&gt;Rating &amp;amp; feedback&lt;br&gt;&lt;/font&gt;" style="text;html=1;align=center;verticalAlign=middle;resizable=0;points=[];autosize=1;fontSize=18;fontColor=none;" parent="1" vertex="1">
          <mxGeometry x="325" y="940" width="170" height="50" as="geometry" />
        </mxCell>
        <mxCell id="q7RqIhyHIb_Ac7hnuP10-61" value="dispatch" style="verticalAlign=top;endArrow=block;fontSize=18;textDirection=rtl;horizontal=1;labelPosition=right;verticalLabelPosition=bottom;align=left;noLabel=1;fontColor=none;labelBackgroundColor=none;" parent="1" edge="1">
          <mxGeometry width="80" relative="1" as="geometry">
            <mxPoint x="305" y="1080" as="sourcePoint" />
            <mxPoint x="520" y="1080" as="targetPoint" />
          </mxGeometry>
        </mxCell>
        <mxCell id="q7RqIhyHIb_Ac7hnuP10-62" value="&lt;font style=&quot;font-size: 18px&quot;&gt;Request for&amp;nbsp;&lt;br&gt;Customer Review&lt;br&gt;&lt;/font&gt;" style="text;html=1;align=center;verticalAlign=middle;resizable=0;points=[];autosize=1;fontSize=18;fontColor=none;" parent="1" vertex="1">
          <mxGeometry x="325" y="1030" width="160" height="50" as="geometry" />
        </mxCell>
        <mxCell id="q7RqIhyHIb_Ac7hnuP10-64" value="&lt;font&gt;&lt;font style=&quot;font-size: 18px&quot;&gt;Gets Request&lt;/font&gt;&lt;br&gt;&lt;/font&gt;" style="text;html=1;align=center;verticalAlign=middle;resizable=0;points=[];autosize=1;fontSize=18;fontColor=none;" parent="1" vertex="1">
          <mxGeometry x="580" y="1050" width="130" height="30" as="geometry" />
        </mxCell>
        <mxCell id="q7RqIhyHIb_Ac7hnuP10-65" value="return" style="verticalAlign=bottom;endArrow=open;dashed=1;endSize=8;labelBackgroundColor=none;fontSize=18;noLabel=1;fontColor=none;" parent="1" edge="1">
          <mxGeometry relative="1" as="geometry">
            <mxPoint x="760" y="1160" as="sourcePoint" />
            <mxPoint x="530" y="1160" as="targetPoint" />
          </mxGeometry>
        </mxCell>
        <mxCell id="q7RqIhyHIb_Ac7hnuP10-66" value="&lt;font style=&quot;font-size: 18px&quot;&gt;Generate &lt;br&gt;Customers Review&lt;br&gt;&lt;/font&gt;" style="text;html=1;align=center;verticalAlign=middle;resizable=0;points=[];autosize=1;fontSize=18;fontColor=none;" parent="1" vertex="1">
          <mxGeometry x="555" y="1110" width="170" height="50" as="geometry" />
        </mxCell>
        <mxCell id="q7RqIhyHIb_Ac7hnuP10-67" value="return" style="verticalAlign=bottom;endArrow=open;dashed=1;endSize=8;labelBackgroundColor=none;fontSize=18;noLabel=1;fontColor=none;" parent="1" edge="1">
          <mxGeometry relative="1" as="geometry">
            <mxPoint x="517.5" y="1159" as="sourcePoint" />
            <mxPoint x="302.5" y="1159" as="targetPoint" />
          </mxGeometry>
        </mxCell>
        <mxCell id="q7RqIhyHIb_Ac7hnuP10-68" value="&lt;font&gt;&lt;font style=&quot;font-size: 18px&quot;&gt;Display Reviews&lt;/font&gt;&lt;br&gt;&lt;/font&gt;" style="text;html=1;align=center;verticalAlign=middle;resizable=0;points=[];autosize=1;fontSize=18;fontColor=none;" parent="1" vertex="1">
          <mxGeometry x="330" y="1130" width="150" height="30" as="geometry" />
        </mxCell>
        <mxCell id="q7RqIhyHIb_Ac7hnuP10-70" value="dispatch" style="verticalAlign=top;endArrow=block;fontSize=18;textDirection=rtl;horizontal=1;labelPosition=right;verticalLabelPosition=bottom;align=left;noLabel=1;fontColor=none;labelBackgroundColor=none;" parent="1" edge="1">
          <mxGeometry width="80" relative="1" as="geometry">
            <mxPoint x="305" y="1240" as="sourcePoint" />
            <mxPoint x="520" y="1240" as="targetPoint" />
          </mxGeometry>
        </mxCell>
        <mxCell id="q7RqIhyHIb_Ac7hnuP10-71" value="&lt;font style=&quot;font-size: 18px&quot;&gt;Check&lt;br&gt;Approve &amp;amp; Remove&lt;br&gt;Review&lt;br&gt;&lt;/font&gt;" style="text;html=1;align=center;verticalAlign=middle;resizable=0;points=[];autosize=1;fontSize=18;fontColor=none;" parent="1" vertex="1">
          <mxGeometry x="325" y="1170" width="170" height="70" as="geometry" />
        </mxCell>
        <mxCell id="q7RqIhyHIb_Ac7hnuP10-72" value="dispatch" style="verticalAlign=top;endArrow=block;fontSize=18;textDirection=rtl;horizontal=1;labelPosition=right;verticalLabelPosition=bottom;align=left;noLabel=1;fontColor=none;labelBackgroundColor=none;" parent="1" edge="1">
          <mxGeometry width="80" relative="1" as="geometry">
            <mxPoint x="530" y="1080" as="sourcePoint" />
            <mxPoint x="760" y="1080" as="targetPoint" />
          </mxGeometry>
        </mxCell>
        <mxCell id="q7RqIhyHIb_Ac7hnuP10-73" value="&lt;font style=&quot;font-size: 18px&quot;&gt;Store&lt;br&gt;Approved Review&lt;br&gt;&lt;/font&gt;" style="text;html=1;align=center;verticalAlign=middle;resizable=0;points=[];autosize=1;fontSize=18;fontColor=none;" parent="1" vertex="1">
          <mxGeometry x="560" y="1190" width="160" height="50" as="geometry" />
        </mxCell>
        <mxCell id="q7RqIhyHIb_Ac7hnuP10-75" value="&lt;font&gt;&lt;font style=&quot;font-size: 18px&quot;&gt;Display on System&lt;/font&gt;&lt;br&gt;&lt;/font&gt;" style="text;html=1;align=center;verticalAlign=middle;resizable=0;points=[];autosize=1;fontSize=18;fontColor=none;" parent="1" vertex="1">
          <mxGeometry x="565" y="1250" width="160" height="30" as="geometry" />
        </mxCell>
        <mxCell id="q7RqIhyHIb_Ac7hnuP10-76" value="" style="shape=umlDestroy;whiteSpace=wrap;html=1;strokeWidth=3;fontSize=18;fontColor=none;" parent="1" vertex="1">
          <mxGeometry x="280" y="1450" width="30" height="30" as="geometry" />
        </mxCell>
        <mxCell id="q7RqIhyHIb_Ac7hnuP10-77" value="" style="shape=umlDestroy;whiteSpace=wrap;html=1;strokeWidth=3;fontSize=18;fontColor=none;" parent="1" vertex="1">
          <mxGeometry x="515" y="1450" width="30" height="30" as="geometry" />
        </mxCell>
        <mxCell id="q7RqIhyHIb_Ac7hnuP10-78" value="" style="shape=umlDestroy;whiteSpace=wrap;html=1;strokeWidth=3;fontSize=18;fontColor=none;" parent="1" vertex="1">
          <mxGeometry x="755" y="1440" width="30" height="30" as="geometry" />
        </mxCell>
        <mxCell id="q7RqIhyHIb_Ac7hnuP10-79" value="" style="shape=umlDestroy;whiteSpace=wrap;html=1;strokeWidth=3;fontSize=18;fontColor=none;" parent="1" vertex="1">
          <mxGeometry x="40" y="1440" width="30" height="30" as="geometry" />
        </mxCell>
        <mxCell id="q7RqIhyHIb_Ac7hnuP10-80" value="dispatch" style="verticalAlign=top;endArrow=block;fontSize=18;textDirection=rtl;horizontal=1;labelPosition=right;verticalLabelPosition=bottom;align=left;noLabel=1;fontColor=none;labelBackgroundColor=none;" parent="1" edge="1">
          <mxGeometry width="80" relative="1" as="geometry">
            <mxPoint x="307.5" y="1320" as="sourcePoint" />
            <mxPoint x="522.5" y="1320" as="targetPoint" />
          </mxGeometry>
        </mxCell>
        <mxCell id="q7RqIhyHIb_Ac7hnuP10-81" value="&lt;font&gt;&lt;font style=&quot;font-size: 18px&quot;&gt;Notify Users&lt;/font&gt;&lt;br&gt;&lt;/font&gt;" style="text;html=1;align=center;verticalAlign=middle;resizable=0;points=[];autosize=1;fontSize=18;fontColor=none;" parent="1" vertex="1">
          <mxGeometry x="350" y="1290" width="110" height="30" as="geometry" />
        </mxCell>
        <mxCell id="q7RqIhyHIb_Ac7hnuP10-82" value="return" style="verticalAlign=bottom;endArrow=open;dashed=1;endSize=8;labelBackgroundColor=none;fontSize=18;noLabel=1;fontColor=none;" parent="1" edge="1">
          <mxGeometry relative="1" as="geometry">
            <mxPoint x="520" y="1400" as="sourcePoint" />
            <mxPoint x="305" y="1400" as="targetPoint" />
          </mxGeometry>
        </mxCell>
        <mxCell id="q7RqIhyHIb_Ac7hnuP10-83" value="&lt;font&gt;&lt;font style=&quot;font-size: 18px&quot;&gt;User Notified &lt;br&gt;Successfully&lt;/font&gt;&lt;br&gt;&lt;/font&gt;" style="text;html=1;align=center;verticalAlign=middle;resizable=0;points=[];autosize=1;fontSize=18;fontColor=none;" parent="1" vertex="1">
          <mxGeometry x="345" y="1350" width="120" height="50" as="geometry" />
        </mxCell>
        <mxCell id="ftOnSb2uyW7GhW-vltbk-1" value="return" style="verticalAlign=bottom;endArrow=open;dashed=1;endSize=8;labelBackgroundColor=none;fontSize=18;noLabel=1;fontColor=none;" parent="1" edge="1">
          <mxGeometry relative="1" as="geometry">
            <mxPoint x="295" y="639" as="sourcePoint" />
            <mxPoint x="65" y="639" as="targetPoint" />
          </mxGeometry>
        </mxCell>
        <mxCell id="ftOnSb2uyW7GhW-vltbk-2" value="&lt;font style=&quot;font-size: 18px&quot;&gt;Shipping Product&lt;/font&gt;" style="text;html=1;align=center;verticalAlign=middle;resizable=0;points=[];autosize=1;fontSize=18;fontColor=none;" parent="1" vertex="1">
          <mxGeometry x="95" y="610" width="150" height="30" as="geometry" />
        </mxCell>
        <mxCell id="ftOnSb2uyW7GhW-vltbk-3" value="&lt;font style=&quot;font-size: 18px&quot;&gt;Display Other &lt;br&gt;Customer&#39;s&amp;nbsp;Review,&lt;br&gt;&amp;nbsp;Rating &amp;amp; Feedback&lt;br&gt;&lt;/font&gt;" style="text;html=1;align=center;verticalAlign=middle;resizable=0;points=[];autosize=1;fontSize=18;fontColor=none;" parent="1" vertex="1">
          <mxGeometry x="315" y="410" width="170" height="70" as="geometry" />
        </mxCell>
        <mxCell id="ftOnSb2uyW7GhW-vltbk-4" value="return" style="verticalAlign=bottom;endArrow=open;dashed=1;endSize=8;labelBackgroundColor=none;fontSize=18;noLabel=1;fontColor=none;" parent="1" edge="1">
          <mxGeometry relative="1" as="geometry">
            <mxPoint x="520" y="480" as="sourcePoint" />
            <mxPoint x="65" y="480" as="targetPoint" />
          </mxGeometry>
        </mxCell>
        <mxCell id="ftOnSb2uyW7GhW-vltbk-6" value="dispatch" style="verticalAlign=top;endArrow=block;fontSize=18;textDirection=rtl;horizontal=1;labelPosition=right;verticalLabelPosition=bottom;align=left;noLabel=1;fontColor=none;labelBackgroundColor=none;" parent="1" edge="1">
          <mxGeometry width="80" relative="1" as="geometry">
            <mxPoint x="530" y="1240" as="sourcePoint" />
            <mxPoint x="760" y="1240" as="targetPoint" />
          </mxGeometry>
        </mxCell>
        <mxCell id="q7RqIhyHIb_Ac7hnuP10-23" value="return" style="verticalAlign=bottom;endArrow=open;dashed=1;endSize=8;labelBackgroundColor=none;fontSize=18;noLabel=1;fontColor=none;" parent="1" edge="1">
          <mxGeometry relative="1" as="geometry">
            <mxPoint x="520" y="320" as="sourcePoint" />
            <mxPoint x="65" y="320" as="targetPoint" />
          </mxGeometry>
        </mxCell>
        <mxCell id="ftOnSb2uyW7GhW-vltbk-8" value="dispatch" style="verticalAlign=top;endArrow=block;fontSize=18;textDirection=rtl;horizontal=1;labelPosition=right;verticalLabelPosition=bottom;align=left;noLabel=1;fontColor=none;labelBackgroundColor=none;" parent="1" edge="1">
          <mxGeometry width="80" relative="1" as="geometry">
            <mxPoint x="67.5" y="720" as="sourcePoint" />
            <mxPoint x="522.5" y="720" as="targetPoint" />
          </mxGeometry>
        </mxCell>
        <mxCell id="ftOnSb2uyW7GhW-vltbk-9" value="dispatch" style="verticalAlign=top;endArrow=block;fontSize=18;textDirection=rtl;horizontal=1;labelPosition=right;verticalLabelPosition=bottom;align=left;noLabel=1;fontColor=none;labelBackgroundColor=none;" parent="1" edge="1">
          <mxGeometry width="80" relative="1" as="geometry">
            <mxPoint x="65" y="280" as="sourcePoint" />
            <mxPoint x="520" y="280" as="targetPoint" />
          </mxGeometry>
        </mxCell>
        <mxCell id="ftOnSb2uyW7GhW-vltbk-10" value="dispatch" style="verticalAlign=top;endArrow=block;fontSize=18;textDirection=rtl;horizontal=1;labelPosition=right;verticalLabelPosition=bottom;align=left;noLabel=1;fontColor=none;labelBackgroundColor=none;" parent="1" edge="1">
          <mxGeometry width="80" relative="1" as="geometry">
            <mxPoint x="65" y="400" as="sourcePoint" />
            <mxPoint x="520" y="400" as="targetPoint" />
          </mxGeometry>
        </mxCell>
        <mxCell id="ftOnSb2uyW7GhW-vltbk-11" value="return" style="verticalAlign=bottom;endArrow=open;dashed=1;endSize=8;labelBackgroundColor=none;fontSize=18;noLabel=1;fontColor=none;" parent="1" edge="1">
          <mxGeometry relative="1" as="geometry">
            <mxPoint x="760" y="1280" as="sourcePoint" />
            <mxPoint x="530" y="1280" as="targetPoint" />
          </mxGeometry>
        </mxCell>
      </root>
    </mxGraphModel>
  </diagram>
</mxfile>
